<svg width="312.6435546875px" height="120.8px" xmlns="http://www.w3.org/2000/svg" viewBox="125.67822265625 35.600000000000001 312.6435546875 120.8" style="background: rgba(0, 0, 0, 0);" preserveAspectRatio="xMidYMid"><defs><linearGradient id="editing-gradient-gradient" x1="0" x2="1" y1="0.5" y2="0.5" gradientUnits="objectBoundingBox"><stop offset="0" stop-color="#f0f"></stop><stop offset="1" stop-color="#00ffff"></stop></linearGradient></defs><g><g transform="translate(142.45366090536118, 99)"><path d="M27.84-9.86L27.84-9.86L27.84-9.86Q29.06-8.32 29.06-5.34L29.06-5.34L29.06-5.34Q29.06-2.37 26.78-0.54L26.78-0.54L26.78-0.54Q24.51 1.28 20.54 1.28L20.54 1.28L20.54 1.28Q18.24 1.28 14.66 0.77L14.66 0.77L14.66 0.77Q7.62-0.32 5.60-0.32L5.60-0.32L5.60-0.32Q3.58-0.32 2.75-0.22L2.75-0.22L2.75-0.22Q1.92-0.13 0.58 0L0.58 0L8.32-42.24L22.34-42.24L15.94-7.04L15.94-7.04Q16.77-6.91 17.54-6.91L17.54-6.91L19.14-6.91L19.14-6.91Q24.51-6.91 27.84-9.86ZM59.26-10.82L59.26-10.82L59.26-10.82Q60.86-9.73 60.86-7.33L60.86-7.33L60.86-7.33Q60.86-4.93 59.65-3.39L59.65-3.39L59.65-3.39Q58.43-1.86 56.45-0.83L56.45-0.83L56.45-0.83Q52.35 1.28 47.94 1.28L47.94 1.28L47.94 1.28Q43.52 1.28 40.93 0.32L40.93 0.32L40.93 0.32Q38.34-0.64 36.61-2.43L36.61-2.43L36.61-2.43Q33.22-5.82 33.22-12.03L33.22-12.03L33.22-12.03Q33.22-21.70 38.46-27.58L38.46-27.58L38.46-27.58Q44.10-33.92 53.89-33.92L53.89-33.92L53.89-33.92Q59.97-33.92 62.98-31.36L62.98-31.36L62.98-31.36Q65.22-29.44 65.22-26.30L65.22-26.30L65.22-26.30Q65.22-15.04 45.76-15.04L45.76-15.04L45.76-15.04Q45.50-13.38 45.50-11.97L45.50-11.97L45.50-11.97Q45.50-9.02 46.82-7.90L46.82-7.90L46.82-7.90Q48.13-6.78 50.56-6.78L50.56-6.78L50.56-6.78Q52.99-6.78 55.58-7.90L55.58-7.90L55.58-7.90Q58.18-9.02 59.26-10.82ZM46.21-17.79L46.21-17.79L46.21-17.79Q50.75-17.79 53.38-20.61L53.38-20.61L53.38-20.61Q56-23.30 56-27.58L56-27.58L56-27.58Q56-29.06 55.46-29.86L55.46-29.86L55.46-29.86Q54.91-30.66 53.82-30.66L53.82-30.66L53.82-30.66Q52.74-30.66 51.81-30.24L51.81-30.24L51.81-30.24Q50.88-29.82 49.92-28.42L49.92-28.42L49.92-28.42Q47.55-25.22 46.21-17.79ZM68.42-6.40L68.42-6.40L68.42-6.40Q68.42-8.13 69.31-12.48L69.31-12.48L72.70-29.76L68.93-29.76L69.18-31.68L69.18-31.68Q76.86-33.98 84.29-39.62L84.29-39.62L87.36-39.62L85.82-32.64L90.82-32.64L90.24-29.76L85.31-29.76L82.05-12.48L82.05-12.48Q81.22-8.51 81.22-7.17L81.22-7.17L81.22-7.17Q81.22-4.10 83.90-3.46L83.90-3.46L83.90-3.46Q83.26-1.28 80.96 0L80.96 0L80.96 0Q78.66 1.28 75.39 1.28L75.39 1.28L75.39 1.28Q72.13 1.28 70.27-0.77L70.27-0.77L70.27-0.77Q68.42-2.82 68.42-6.40ZM105.86-3.52L105.86-3.52L105.86-3.52Q103.87 1.28 97.54 1.28L97.54 1.28L97.54 1.28Q94.27 1.28 92.22-0.96L92.22-0.96L92.22-0.96Q90.50-2.94 90.50-4.93L90.50-4.93L90.50-4.93Q90.50-10.11 92.86-20.22L92.86-20.22L95.23-32.64L108.22-33.92L104.32-13.70L104.32-13.70Q103.23-8.96 103.23-7.30L103.23-7.30L103.23-7.30Q103.23-3.65 105.86-3.52ZM96.38-41.54L96.38-41.54L96.38-41.54Q96.38-44.03 98.46-45.38L98.46-45.38L98.46-45.38Q100.54-46.72 103.55-46.72L103.55-46.72L103.55-46.72Q106.56-46.72 108.38-45.38L108.38-45.38L108.38-45.38Q110.21-44.03 110.21-41.54L110.21-41.54L110.21-41.54Q110.21-39.04 108.19-37.76L108.19-37.76L108.19-37.76Q106.18-36.48 103.17-36.48L103.17-36.48L103.17-36.48Q100.16-36.48 98.27-37.76L98.27-37.76L98.27-37.76Q96.38-39.04 96.38-41.54ZM136.26-29.57L136.26-29.57L136.26-29.57Q137.22-31.49 137.22-33.28L137.22-33.28L137.22-33.28Q137.22-35.07 137.02-36.06L137.02-36.06L137.02-36.06Q136.83-37.06 136.38-37.82L136.38-37.82L136.38-37.82Q135.42-39.49 133.50-39.49L133.50-39.49L133.50-39.49Q131.14-39.49 129.22-37.76L129.22-37.76L129.22-37.76Q127.17-35.97 127.17-33.15L127.17-33.15L127.17-33.15Q127.17-31.36 128.42-29.98L128.42-29.98L128.42-29.98Q129.66-28.61 131.58-27.33L131.58-27.33L131.58-27.33Q133.50-26.05 135.68-24.77L135.68-24.77L135.68-24.77Q137.86-23.49 139.78-21.95L139.78-21.95L139.78-21.95Q144.19-18.43 144.19-13.70L144.19-13.70L144.19-13.70Q144.19-10.50 142.50-7.78L142.50-7.78L142.50-7.78Q140.80-5.06 137.98-3.07L137.98-3.07L137.98-3.07Q131.84 1.28 123.71 1.28L123.71 1.28L123.71 1.28Q117.12 1.28 113.73-0.86L113.73-0.86L113.73-0.86Q110.34-3.01 110.34-6.27L110.34-6.27L110.34-6.27Q110.34-12.10 114.88-13.57L114.88-13.57L114.88-13.57Q116.16-14.02 118.11-14.02L118.11-14.02L118.11-14.02Q120.06-14.02 122.30-13.18L122.30-13.18L122.30-13.18Q121.28-10.56 121.28-8.19L121.28-8.19L121.28-8.19Q121.28-3.07 124.93-3.07L124.93-3.07L124.93-3.07Q127.30-3.07 129.25-4.80L129.25-4.80L129.25-4.80Q131.20-6.53 131.20-8.48L131.20-8.48L131.20-8.48Q131.20-10.43 129.95-11.84L129.95-11.84L129.95-11.84Q128.70-13.25 126.85-14.37L126.85-14.37L126.85-14.37Q124.99-15.49 122.85-16.58L122.85-16.58L122.85-16.58Q120.70-17.66 118.85-19.20L118.85-19.20L118.85-19.20Q114.50-22.72 114.50-28.35L114.50-28.35L114.50-28.35Q114.50-32 116.29-34.85L116.29-34.85L116.29-34.85Q118.08-37.70 120.96-39.62L120.96-39.62L120.96-39.62Q126.72-43.52 133.79-43.52L133.79-43.52L133.79-43.52Q140.86-43.52 144.29-41.41L144.29-41.41L144.29-41.41Q147.71-39.30 147.71-35.71L147.71-35.71L147.71-35.71Q147.71-32.58 145.28-30.59L145.28-30.59L145.28-30.59Q143.17-28.93 140.61-28.93L140.61-28.93L140.61-28.93Q138.05-28.93 136.26-29.57ZM174.98-10.82L174.98-10.82L174.98-10.82Q176.58-9.73 176.58-7.33L176.58-7.33L176.58-7.33Q176.58-4.93 175.36-3.39L175.36-3.39L175.36-3.39Q174.14-1.86 172.16-0.83L172.16-0.83L172.16-0.83Q168.06 1.28 163.65 1.28L163.65 1.28L163.65 1.28Q159.23 1.28 156.64 0.32L156.64 0.32L156.64 0.32Q154.05-0.64 152.32-2.43L152.32-2.43L152.32-2.43Q148.93-5.82 148.93-12.03L148.93-12.03L148.93-12.03Q148.93-21.70 154.18-27.58L154.18-27.58L154.18-27.58Q159.81-33.92 169.60-33.92L169.60-33.92L169.60-33.92Q175.68-33.92 178.69-31.36L178.69-31.36L178.69-31.36Q180.93-29.44 180.93-26.30L180.93-26.30L180.93-26.30Q180.93-15.04 161.47-15.04L161.47-15.04L161.47-15.04Q161.22-13.38 161.22-11.97L161.22-11.97L161.22-11.97Q161.22-9.02 162.53-7.90L162.53-7.90L162.53-7.90Q163.84-6.78 166.27-6.78L166.27-6.78L166.27-6.78Q168.70-6.78 171.30-7.90L171.30-7.90L171.30-7.90Q173.89-9.02 174.98-10.82ZM161.92-17.79L161.92-17.79L161.92-17.79Q166.46-17.79 169.09-20.61L169.09-20.61L169.09-20.61Q171.71-23.30 171.71-27.58L171.71-27.58L171.71-27.58Q171.71-29.06 171.17-29.86L171.17-29.86L171.17-29.86Q170.62-30.66 169.54-30.66L169.54-30.66L169.54-30.66Q168.45-30.66 167.52-30.24L167.52-30.24L167.52-30.24Q166.59-29.82 165.63-28.42L165.63-28.42L165.63-28.42Q163.26-25.22 161.92-17.79ZM214.53-26.62L214.53-26.62L214.53-26.62Q214.53-23.94 212.29-22.27L212.29-22.27L212.29-22.27Q210.05-20.61 206.40-20.61L206.40-20.61L206.40-20.61Q204.86-20.61 203.97-21.06L203.97-21.06L203.97-21.06Q204.67-22.72 204.90-24.80L204.90-24.80L204.90-24.80Q205.12-26.88 205.12-27.46L205.12-27.46L205.12-27.46Q205.12-30.14 203.26-30.14L203.26-30.14L203.26-30.14Q201.98-30.14 200.54-28.54L200.54-28.54L200.54-28.54Q199.10-26.94 197.89-24.45L197.89-24.45L197.89-24.45Q195.20-18.69 195.20-12.86L195.20-12.86L195.20-12.86Q195.20-9.66 196.42-8.22L196.42-8.22L196.42-8.22Q197.63-6.78 200.32-6.78L200.32-6.78L200.32-6.78Q204.03-6.78 206.98-9.86L206.98-9.86L206.98-9.86Q207.81-10.82 208.26-11.90L208.26-11.90L208.26-11.90Q210.69-10.62 210.69-7.10L210.69-7.10L210.69-7.10Q210.69-3.52 206.72-1.15L206.72-1.15L206.72-1.15Q202.62 1.28 196.10 1.28L196.10 1.28L196.10 1.28Q183.10 1.28 183.10-12.48L183.10-12.48L183.10-12.48Q183.10-22.53 188.80-28.29L188.80-28.29L188.80-28.29Q194.30-33.92 204.42-33.92L204.42-33.92L204.42-33.92Q214.53-33.92 214.53-26.62Z" fill="url(#editing-gradient-gradient)"></path></g></g><style>text {
  font-size: 64px;
  font-family: Arial Black;
  dominant-baseline: central;
  text-anchor: middle;
}</style></svg>